<svg width="673" height="199" viewBox="0 0 673 199" fill="none" xmlns="http://www.w3.org/2000/svg">
<path d="M647.472 199H24.9028C11.2063 199 0 187.806 0 174.125V24.875C0 11.1937 11.2063 0 24.9028 0H647.472C661.169 0 672.375 11.1937 672.375 24.875V174.125C672.375 187.806 661.169 199 647.472 199Z" fill="#100F0D"/>
<path d="M248.068 77.1313H224.557L218.814 92.7521H208.527L231.504 34.1406H241.256L264.767 92.7521H253.947L248.068 77.1313ZM227.497 69.1206H244.997L238.718 52.2982C237.917 50.0285 236.981 47.3583 236.18 44.5545C235.378 47.0912 234.577 49.6279 233.775 52.1647L227.497 69.1206Z" fill="white"/>
<path d="M268.908 59.7717C268.908 56.5675 268.775 52.9627 268.641 49.0908H277.992C278.393 50.96 278.526 52.6956 278.66 54.5648C282.534 50.2924 286.942 48.1562 292.019 48.1562C294.958 48.1562 297.629 48.8238 300.167 50.2924C302.706 51.7611 304.709 54.0308 306.179 57.235C307.648 60.4393 308.45 64.4446 308.45 69.251C308.45 74.3245 307.515 78.7303 305.778 82.3352C304.042 85.94 301.636 88.7437 298.431 90.4794C295.358 92.3485 291.752 93.2831 287.61 93.2831C284.672 93.2831 281.732 92.749 278.794 91.8145V110.106L268.775 110.907V59.7717H268.908ZM295.225 82.0681C297.229 79.3979 298.297 75.3926 298.297 70.0521C298.297 65.1122 297.496 61.6409 295.759 59.5047C294.022 57.3685 291.885 56.1669 289.079 56.1669C287.076 56.1669 285.339 56.5675 283.736 57.502C282.133 58.4366 280.531 59.6382 279.061 61.2404V84.6049C279.996 85.1389 281.198 85.5394 282.534 85.8065C283.87 86.0735 285.206 86.207 286.408 86.207C290.149 86.207 293.088 84.8719 295.225 82.0681Z" fill="white"/>
<path d="M314.461 59.7717C314.461 56.5675 314.327 52.9627 314.194 49.0908H323.545C323.946 50.96 324.079 52.6956 324.213 54.5648C328.087 50.2924 332.496 48.1562 337.571 48.1562C340.51 48.1562 343.183 48.8238 345.72 50.2924C348.258 51.7611 350.262 54.0308 351.731 57.235C353.201 60.4393 354.003 64.4446 354.003 69.251C354.003 74.3245 353.067 78.7303 351.331 82.3352C349.594 85.94 347.19 88.7437 343.984 90.4794C340.911 92.3485 337.304 93.2831 333.163 93.2831C330.224 93.2831 327.286 92.749 324.346 91.8145V110.106L314.327 110.907V59.7717H314.461ZM340.777 82.0681C342.781 79.3979 343.85 75.3926 343.85 70.0521C343.85 65.1122 343.048 61.6409 341.311 59.5047C339.575 57.3685 337.438 56.1669 334.633 56.1669C332.629 56.1669 330.893 56.5675 329.289 57.502C327.686 58.4366 326.083 59.6382 324.614 61.2404V84.6049C325.549 85.1389 326.751 85.5394 328.087 85.8065C329.423 86.0735 330.759 86.207 331.961 86.207C335.701 86.207 338.774 84.8719 340.777 82.0681Z" fill="white"/>
<path d="M372.304 89.948C368.029 87.5448 364.69 84.207 362.418 79.6676C360.148 75.2617 358.945 69.9213 358.945 63.9132C358.945 57.3712 360.281 51.7637 362.953 47.2243C365.625 42.6849 369.232 39.2136 373.907 36.9439C378.449 34.6743 383.659 33.4727 389.403 33.4727C392.743 33.4727 395.949 33.8732 399.022 34.5408C402.093 35.3418 404.899 36.2764 407.57 37.6115L405.033 45.3552C399.689 42.8185 394.613 41.6168 389.804 41.6168C385.796 41.6168 382.189 42.5514 379.117 44.2871C376.045 46.0227 373.64 48.5594 372.037 51.8972C370.301 55.235 369.499 59.3739 369.499 64.0468C369.499 68.1856 370.167 71.9239 371.502 75.1282C372.838 78.3325 374.842 80.8692 377.648 82.8719C380.452 84.741 384.059 85.6756 388.335 85.6756C390.338 85.6756 392.208 85.5421 394.212 85.1416C396.216 84.741 397.952 84.3405 399.689 83.6729V71.7904H386.197V64.0468H409.441V88.7464C406.102 90.3485 402.628 91.5501 398.888 92.3512C395.148 93.1522 391.541 93.5528 387.934 93.5528C381.789 93.5528 376.712 92.3512 372.304 89.948Z" fill="white"/>
<path d="M444.574 92.7515C444.173 91.0159 444.04 89.1467 443.906 87.0106C442.303 88.8797 440.433 90.3483 437.894 91.6834C435.49 93.0186 432.685 93.5526 429.479 93.5526C426.941 93.5526 424.67 93.0186 422.666 92.084C420.662 91.1494 418.926 89.6808 417.723 87.6781C416.521 85.6754 415.853 83.2722 415.853 80.4685C415.853 76.1961 417.323 72.8583 420.395 70.3216C423.467 67.7849 428.544 66.5833 435.624 66.5833C438.296 66.5833 440.967 66.7168 443.505 67.1174V66.3163C443.505 62.4445 442.704 59.7742 441.101 58.1721C439.498 56.57 437.093 55.7689 434.021 55.7689C431.883 55.7689 429.613 56.0359 427.208 56.7035C424.803 57.371 422.666 58.0386 420.796 58.9732L419.193 51.7636C420.93 50.9625 423.334 50.1614 426.273 49.4939C429.211 48.8263 432.284 48.4258 435.49 48.4258C439.231 48.4258 442.437 48.9598 445.108 50.1614C447.78 51.363 449.784 53.2322 451.254 56.0359C452.723 58.8397 453.524 62.578 453.524 67.2509V84.6074C453.524 86.4765 453.658 89.1467 453.791 92.7515H444.574ZM438.696 84.6074C440.834 83.6728 442.437 82.3377 443.773 80.869V72.7248C441.101 72.4578 438.83 72.3243 437.093 72.3243C432.952 72.3243 430.147 72.9919 428.544 74.327C426.941 75.6621 426.139 77.3977 426.139 79.6674C426.139 81.8036 426.674 83.4058 427.876 84.4738C429.078 85.5419 430.547 86.076 432.551 86.076C434.555 86.2095 436.559 85.6754 438.696 84.6074Z" fill="white"/>
<path d="M461.406 82.3364V30.8011L471.291 30V80.6008C471.291 82.47 471.558 83.8051 472.227 84.6061C472.894 85.4072 473.829 85.8077 475.299 85.8077C475.967 85.8077 476.768 85.6742 477.971 85.4072L479.172 92.6168C478.238 93.0174 477.035 93.2844 475.699 93.5514C474.364 93.8184 473.028 93.9519 471.825 93.9519C464.879 93.5514 461.406 89.8131 461.406 82.3364Z" fill="white"/>
<path d="M486.252 82.3364V30.8011L496.138 30V80.6008C496.138 82.47 496.405 83.8051 497.073 84.6061C497.741 85.4072 498.676 85.8077 500.146 85.8077C500.813 85.8077 501.615 85.6742 502.818 85.4072L504.019 92.6168C503.085 93.0174 501.882 93.2844 500.546 93.5514C499.211 93.8184 497.875 93.9519 496.672 93.9519C489.726 93.5514 486.252 89.8131 486.252 82.3364Z" fill="white"/>
<path d="M544.896 72.1883H516.309C516.709 81.2671 521.118 85.94 529.4 85.94C531.405 85.94 533.542 85.6729 535.679 85.1389C537.816 84.6049 539.82 83.9373 541.824 83.1362L543.962 89.9453C539.019 92.3485 533.542 93.5501 527.53 93.5501C522.855 93.5501 518.981 92.6155 515.775 90.8799C512.569 89.1442 510.164 86.6075 508.561 83.2697C506.958 79.932 506.156 76.0601 506.156 71.3872C506.156 66.5808 506.958 62.442 508.695 58.9707C510.431 55.4994 512.702 52.8291 515.775 50.96C518.848 49.0908 522.321 48.1562 526.328 48.1562C530.469 48.1562 533.942 49.0908 536.615 51.0935C539.419 52.9627 541.423 55.6329 542.759 58.8372C544.095 62.0414 544.763 65.6462 544.763 69.5181V72.1883H544.896ZM535.145 65.9133C535.011 62.442 534.076 59.7717 532.473 58.0361C530.87 56.3004 528.866 55.3659 526.195 55.3659C523.656 55.3659 521.519 56.3004 519.916 58.0361C518.179 59.7717 517.111 62.442 516.576 65.7798H535.145V65.9133Z" fill="white"/>
<path d="M552.378 60.0413C552.378 57.6381 552.244 54.0333 552.111 49.0933H561.462C561.595 50.2949 561.729 51.7636 561.863 53.4992C561.997 55.2349 562.13 56.57 562.13 57.6381C563.332 55.7689 564.401 54.1668 565.604 52.8316C566.672 51.4965 568.008 50.4284 569.477 49.6274C570.947 48.8263 572.684 48.4258 574.554 48.4258C576.156 48.4258 577.358 48.5593 578.561 48.9598L577.358 57.6381C576.424 57.371 575.355 57.2375 574.152 57.2375C571.748 57.2375 569.744 57.7716 568.008 58.9732C566.271 60.1748 564.401 62.1774 562.397 64.8477V92.8851H552.511V60.0413H552.378Z" fill="white"/>
<path d="M584.171 110.642C582.701 110.375 581.499 110.108 580.564 109.708L582.434 102.498C583.102 102.632 583.904 102.899 584.972 103.032C586.041 103.166 586.977 103.299 587.911 103.299C592.32 103.299 595.659 100.496 597.797 94.7546L598.465 93.1525L582.434 49.2273H593.121L601.27 73.7934C602.606 77.9322 603.408 81.27 603.808 83.4062C604.609 80.2019 605.411 77.1311 606.479 73.9269L614.629 49.0938H624.648L608.618 93.286C607.148 97.4249 605.411 100.896 603.675 103.433C601.938 105.97 599.801 107.839 597.529 109.174C595.125 110.375 592.32 111.043 588.847 111.043C587.244 111.043 585.641 110.91 584.171 110.642Z" fill="white"/>
<path d="M224.838 157.778C216.016 157.778 210.68 151.626 210.68 141.905V141.863C210.68 132.121 216.142 126.011 224.838 126.011C233.556 126.011 238.976 132.142 238.976 141.863V141.905C238.976 151.605 233.598 157.778 224.838 157.778ZM224.838 153.621C230.595 153.621 234.166 149.001 234.166 141.905V141.863C234.166 134.703 230.574 130.168 224.838 130.168C219.103 130.168 215.49 134.703 215.49 141.863V141.905C215.49 149.001 218.998 153.621 224.838 153.621ZM244.072 157.043V126.746H256.026C262.244 126.746 266.11 130.357 266.11 135.984V136.026C266.11 140.099 263.924 143.417 260.227 144.655L267.034 157.043H261.593L255.417 145.39H248.778V157.043H244.072ZM248.778 141.569H255.564C259.177 141.569 261.278 139.595 261.278 136.152V136.11C261.278 132.75 259.051 130.693 255.417 130.693H248.778V141.569ZM284.44 157.778C275.617 157.778 270.281 151.626 270.281 141.905V141.863C270.281 132.121 275.743 126.011 284.44 126.011C293.159 126.011 298.579 132.142 298.579 141.863V141.905C298.579 147.658 296.688 152.172 293.327 154.88L297.318 160.318H292.465L289.902 156.833C288.285 157.463 286.436 157.778 284.44 157.778ZM284.44 153.621C285.427 153.621 286.373 153.474 287.234 153.201L283.327 147.91H288.18L290.595 151.185C292.633 149.148 293.768 145.915 293.768 141.905V141.863C293.768 134.703 290.175 130.168 284.44 130.168C278.705 130.168 275.092 134.703 275.092 141.863V141.905C275.092 149.001 278.599 153.621 284.44 153.621ZM299.913 157.043L310.858 126.746H315.942L326.887 157.043H321.93L319.199 148.854H307.603L304.85 157.043H299.913ZM313.212 132.058L308.863 145.075H317.938L313.569 132.058H313.212ZM330.87 157.043V126.746H335.575V152.991H349.777V157.043H330.87ZM354.453 157.043V126.746H359.158V157.043H354.453ZM388.866 157.778C380.042 157.778 374.706 151.626 374.706 141.905V141.863C374.706 132.121 380.168 126.011 388.866 126.011C397.584 126.011 403.004 132.142 403.004 141.863V141.905C403.004 151.605 397.626 157.778 388.866 157.778ZM388.866 153.621C394.622 153.621 398.193 149.001 398.193 141.905V141.863C398.193 134.703 394.601 130.168 388.866 130.168C383.131 130.168 379.517 134.703 379.517 141.863V141.905C379.517 149.001 383.026 153.621 388.866 153.621ZM408.1 157.043V126.746H412.805V152.991H427.006V157.043H408.1ZM431.682 157.043V126.746H436.388V157.043H431.682ZM442.702 157.043V126.746H446.945L462.533 148.792H462.848V126.746H467.428V157.043H463.184L447.618 135.039H447.282V157.043H442.702ZM486.537 157.778C477.944 157.778 472.524 151.647 472.524 141.905V141.863C472.524 132.247 478.007 126.011 486.494 126.011C493.384 126.011 498.279 129.916 499.372 135.774L499.414 135.984H494.708L494.645 135.774C493.552 132.184 490.654 130.168 486.494 130.168C480.885 130.168 477.334 134.703 477.334 141.842V141.884C477.334 149.127 480.906 153.621 486.6 153.621C491.557 153.621 494.939 150.492 494.981 145.831V145.159H487.187V141.359H499.624V145.117C499.624 152.802 494.477 157.778 486.537 157.778Z" fill="white"/>
<path fill-rule="evenodd" clip-rule="evenodd" d="M135.055 36.7148H79.6168C53.4339 36.7148 43.9493 46.3277 43.9493 72.3624V127.77C43.9493 153.938 53.5675 163.417 79.6168 163.417H135.055C161.238 163.417 170.722 153.804 170.722 127.77V72.3624C170.856 46.3277 161.238 36.7148 135.055 36.7148Z" fill="#C8102E"/>
<path d="M69.0636 100.133H72.4033V116.688H69.0636V110.013H61.4493V116.688H58.1096V100.133H61.4493V106.808H69.0636V100.133ZM88.0328 109.612C88.0328 112.282 86.697 113.751 84.2924 113.751C81.8879 113.751 80.552 112.282 80.552 109.479V100.133H77.2125V109.612C77.2125 114.285 79.7506 116.955 84.2924 116.955C88.8344 116.955 91.5062 114.285 91.5062 109.479V100.133H88.1665V109.612H88.0328ZM126.906 111.481L123.166 100.133H120.36L116.62 111.481L113.013 100.133H109.406L115.15 116.688H117.956L121.697 105.74L125.437 116.688H128.243L133.987 100.133H130.513L126.906 111.481ZM140.131 109.612H146.277V106.541H140.131V103.204H149.081V100.133H136.925V116.688H149.483V113.617H140.265V109.612H140.131ZM153.357 116.688H156.697V100.133H153.357V116.688ZM98.0518 113.217L96.5824 116.688H93.1092L100.323 100.133H103.262L110.476 116.688H107.002L105.533 113.217H98.0518ZM99.2541 110.28H104.33L101.792 104.405L99.2541 110.28Z" fill="white"/>
<path d="M107.403 79.0362C95.7809 79.0362 86.2963 69.5569 86.2963 57.9414H89.2352C89.2352 67.9548 97.384 76.0989 107.403 76.0989C117.422 76.0989 125.57 67.9548 125.57 57.9414H128.51C128.51 69.5569 119.025 79.0362 107.403 79.0362Z" fill="white"/>
</svg>
