<svg width="673" height="199" viewBox="0 0 673 199" fill="none" xmlns="http://www.w3.org/2000/svg">
<path d="M647.472 199H24.9028C11.2063 199 0 187.806 0 174.125V24.875C0 11.1937 11.2063 0 24.9028 0H647.472C661.169 0 672.375 11.1937 672.375 24.875V174.125C672.375 187.806 661.169 199 647.472 199Z" fill="#100F0D"/>
<path d="M128.058 102.9C128.112 98.7267 129.221 94.6348 131.282 91.0051C133.344 87.3753 136.29 84.3256 139.848 82.1397C137.587 78.9139 134.606 76.2592 131.14 74.3865C127.674 72.5137 123.819 71.4745 119.88 71.3513C111.48 70.47 103.335 76.3755 99.0543 76.3755C94.6905 76.3755 88.0993 71.4388 81.0018 71.5848C76.4108 71.733 71.9366 73.0673 68.015 75.4576C64.0934 77.8479 60.8582 81.2127 58.6247 85.2241C48.9493 101.966 56.1662 126.571 65.4345 140.104C70.0716 146.731 75.491 154.133 82.5822 153.871C89.5213 153.583 92.113 149.448 100.489 149.448C108.787 149.448 111.219 153.871 118.455 153.704C125.9 153.583 130.591 147.048 135.066 140.358C138.398 135.636 140.961 130.418 142.662 124.895C138.337 123.067 134.645 120.006 132.047 116.094C129.451 112.183 128.063 107.594 128.058 102.9Z" fill="white"/>
<path d="M114.392 62.4531C118.453 57.582 120.453 51.3211 119.968 45C113.765 45.6511 108.036 48.6139 103.921 53.298C101.909 55.5863 100.368 58.2485 99.3867 61.1324C98.405 64.0162 98.0014 67.0652 98.1994 70.105C101.302 70.1369 104.371 69.4648 107.176 68.1394C109.981 66.814 112.448 64.8697 114.392 62.4531Z" fill="white"/>
<path d="M215.774 81.3429H192.094L186.407 98.1251H176.377L198.807 36.0352H209.227L231.657 98.1251H221.455L215.774 81.3429ZM194.546 73.5988H213.317L204.063 46.3624H203.804L194.546 73.5988Z" fill="white"/>
<path d="M280.097 75.4937C280.097 89.5611 272.564 98.5992 261.194 98.5992C258.315 98.7498 255.451 98.0867 252.931 96.686C250.41 95.2854 248.335 93.2036 246.943 90.6792H246.728V113.101H237.431V52.857H246.431V60.3863H246.601C248.057 57.874 250.167 55.803 252.707 54.3938C255.246 52.9846 258.121 52.2898 261.024 52.3833C272.52 52.3834 280.097 61.4654 280.097 75.4937ZM270.541 75.4937C270.541 66.3287 265.802 60.3033 258.571 60.3033C251.468 60.3033 246.689 66.4556 246.689 75.4937C246.689 84.6148 251.468 90.7232 258.571 90.7232C265.802 90.7232 270.541 84.7418 270.541 75.4937Z" fill="white"/>
<path d="M329.949 75.4937C329.949 89.5611 322.415 98.5992 311.047 98.5992C308.166 98.7497 305.303 98.0867 302.782 96.686C300.262 95.2853 298.187 93.2036 296.795 90.6791H296.58V113.101H287.283V52.857H296.283V60.3862H296.453C297.909 57.8739 300.019 55.803 302.558 54.3938C305.098 52.9845 307.972 52.2898 310.876 52.3833C322.371 52.3833 329.949 61.4653 329.949 75.4937ZM320.392 75.4937C320.392 66.3287 315.654 60.3033 308.424 60.3033C301.32 60.3033 296.542 66.4556 296.542 75.4937C296.542 84.6148 301.32 90.7232 308.424 90.7232C315.654 90.7232 320.392 84.7417 320.392 75.4937Z" fill="white"/>
<path d="M362.897 80.8255C363.586 86.9827 369.571 91.0254 377.749 91.0254C385.586 91.0254 391.223 86.9825 391.223 81.4307C391.223 76.6114 387.823 73.7257 379.772 71.7481L371.72 69.8096C360.313 67.0557 355.017 61.7236 355.017 53.0713C355.017 42.3584 364.358 35 377.622 35C390.75 35 399.749 42.3584 400.052 53.0713H390.667C390.104 46.875 384.979 43.1348 377.49 43.1348C370 43.1348 364.875 46.919 364.875 52.4268C364.875 56.8164 368.149 59.3995 376.157 61.3768L383.001 63.0565C395.747 66.0692 401.043 71.1865 401.043 80.2684C401.043 91.8846 391.785 99.16 377.06 99.16C363.282 99.16 353.981 92.0555 353.38 80.825L362.897 80.8255Z" fill="white"/>
<path d="M421.108 42.1484V52.8613H429.721V60.2197H421.108V85.1758C421.108 89.0527 422.833 90.8594 426.619 90.8594C427.641 90.8416 428.663 90.7698 429.677 90.6444V97.9588C427.975 98.2767 426.244 98.4207 424.513 98.3885C415.343 98.3885 411.766 94.9461 411.766 86.1668V60.2197H405.181V52.8613H411.766V42.1484H421.108Z" fill="white"/>
<path d="M434.709 75.498C434.709 61.2549 443.103 52.3047 456.191 52.3047C469.323 52.3047 477.678 61.2547 477.678 75.498C477.678 89.7803 469.367 98.6914 456.191 98.6914C443.02 98.6914 434.709 89.7802 434.709 75.498ZM468.205 75.498C468.205 65.7275 463.724 59.9609 456.191 59.9609C448.658 59.9609 444.182 65.7715 444.182 75.498C444.182 85.3076 448.658 91.0303 456.191 91.0303C463.724 91.0303 468.205 85.3076 468.205 75.498Z" fill="white"/>
<path d="M485.343 52.8566H494.21V60.5616H494.425C495.026 58.1551 496.436 56.0285 498.42 54.5391C500.404 53.0496 502.84 52.2882 505.321 52.3829C506.392 52.3791 507.46 52.4954 508.505 52.7296V61.421C507.153 61.0079 505.742 60.8182 504.328 60.8595C502.977 60.8047 501.631 61.0427 500.381 61.5571C499.131 62.0716 498.007 62.8502 497.087 63.8397C496.166 64.8292 495.472 66.006 495.049 67.2893C494.627 68.5727 494.487 69.9322 494.641 71.2745V98.1251H485.343V52.8566Z" fill="white"/>
<path d="M551.371 84.834C550.121 93.0518 542.113 98.6914 531.868 98.6914C518.692 98.6914 510.513 89.8681 510.513 75.7129C510.513 61.5137 518.736 52.3047 531.477 52.3047C544.008 52.3047 551.89 60.9082 551.89 74.6338V77.8174H519.899V78.3789C519.751 80.0449 519.96 81.7232 520.511 83.3024C521.062 84.8816 521.943 86.3256 523.095 87.5383C524.248 88.751 525.645 89.7048 527.195 90.3364C528.745 90.9679 530.41 91.2627 532.083 91.2011C534.28 91.4069 536.485 90.8983 538.37 89.7511C540.254 88.6039 541.718 86.8794 542.543 84.834H551.371ZM519.943 71.3232H542.587C542.67 69.8253 542.443 68.3262 541.92 66.9202C541.396 65.5141 540.587 64.2314 539.544 63.1526C538.501 62.0738 537.245 61.2221 535.858 60.651C534.469 60.0799 532.978 59.8018 531.477 59.834C529.963 59.825 528.462 60.1157 527.062 60.6894C525.661 61.2631 524.387 62.1084 523.315 63.1766C522.242 64.2448 521.392 65.5146 520.813 66.9129C520.235 68.3111 519.939 69.81 519.943 71.3232Z" fill="white"/>
<path d="M192.573 158.818C183.955 158.818 178.743 152.81 178.743 143.314V143.273C178.743 133.758 184.078 127.79 192.573 127.79C201.089 127.79 206.383 133.778 206.383 143.273V143.314C206.383 152.789 201.13 158.818 192.573 158.818ZM192.573 154.758C198.195 154.758 201.684 150.246 201.684 143.314V143.273C201.684 136.28 198.175 131.851 192.573 131.851C186.972 131.851 183.442 136.28 183.442 143.273V143.314C183.442 150.246 186.869 154.758 192.573 154.758Z" fill="white"/>
<path d="M212.948 158.101V135.829H217.401V139.192H217.729C218.53 136.834 220.602 135.439 223.577 135.439C224.296 135.439 225.075 135.542 225.526 135.645V139.746C224.726 139.582 223.967 139.479 223.126 139.479C219.719 139.479 217.401 141.571 217.401 144.791V158.101H212.948Z" fill="white"/>
<path d="M245.409 165.524V154.737H245.06C243.891 157.096 241.366 158.47 238.185 158.47C232.563 158.47 228.952 153.979 228.952 146.985V146.944C228.952 139.89 232.522 135.439 238.227 135.439C241.223 135.439 243.809 136.998 245.142 139.521H245.409V135.829H249.841V165.524H245.409ZM239.478 154.676C243.151 154.676 245.491 151.702 245.491 146.985V146.944C245.491 142.207 243.151 139.254 239.458 139.254C235.744 139.254 233.487 142.166 233.487 146.944V146.985C233.487 151.764 235.744 154.676 239.478 154.676Z" fill="white"/>
<path d="M263.177 158.47C258.93 158.47 255.79 155.886 255.79 151.846V151.805C255.79 147.826 258.786 145.509 264.101 145.181L270.133 144.832V142.863C270.133 140.423 268.594 139.069 265.579 139.069C263.116 139.069 261.496 139.972 260.961 141.551L260.941 141.633H256.653L256.673 141.489C257.206 137.839 260.715 135.398 265.784 135.398C271.385 135.398 274.545 138.188 274.545 142.863V158.101H270.133V154.942H269.785C268.471 157.198 266.132 158.47 263.177 158.47ZM260.223 151.661C260.223 153.712 261.967 154.922 264.368 154.922C267.692 154.922 270.133 152.748 270.133 149.877V147.97L264.696 148.318C261.619 148.503 260.223 149.61 260.223 151.62V151.661Z" fill="white"/>
<path d="M281.87 158.101V127.093H286.322V158.101H281.87Z" fill="white"/>
<path d="M296.11 131.851C294.57 131.851 293.318 130.6 293.318 129.082C293.318 127.544 294.57 126.293 296.11 126.293C297.628 126.293 298.9 127.544 298.9 129.082C298.9 130.6 297.628 131.851 296.11 131.851ZM293.873 158.101V135.829H298.305V158.101H293.873Z" fill="white"/>
<path d="M327.399 158.531C320.854 158.531 316.852 154.163 316.852 146.985V146.944C316.852 139.787 320.875 135.398 327.399 135.398C333.904 135.398 337.926 139.767 337.926 146.944V146.985C337.926 154.163 333.925 158.531 327.399 158.531ZM327.399 154.819C331.216 154.819 333.392 151.907 333.392 146.985V146.944C333.392 142.002 331.216 139.11 327.399 139.11C323.562 139.11 321.408 142.002 321.408 146.944V146.985C321.408 151.928 323.562 154.819 327.399 154.819Z" fill="white"/>
<path d="M344.286 158.101V127.093H348.739V158.101H344.286Z" fill="white"/>
<path d="M358.526 131.851C356.987 131.851 355.735 130.6 355.735 129.082C355.735 127.544 356.987 126.293 358.526 126.293C360.045 126.293 361.316 127.544 361.316 129.082C361.316 130.6 360.045 131.851 358.526 131.851ZM356.289 158.101V135.829H360.721V158.101H356.289Z" fill="white"/>
<path d="M368.046 158.101V135.829H372.498V139.213H372.827C373.914 136.834 376.048 135.398 379.29 135.398C384.277 135.398 387.027 138.372 387.027 143.684V158.101H382.594V144.729C382.594 141.038 381.055 139.213 377.792 139.213C374.53 139.213 372.498 141.448 372.498 145.037V158.101H368.046Z" fill="white"/>
<path d="M403.503 165.955C397.839 165.955 394.351 163.474 393.817 159.762L393.858 159.721H398.352L398.373 159.762C398.742 161.3 400.547 162.387 403.564 162.387C407.237 162.387 409.412 160.664 409.412 157.629V153.24H409.084C407.729 155.66 405.267 157.014 402.21 157.014C396.485 157.014 392.956 152.604 392.956 146.329V146.288C392.956 139.931 396.505 135.439 402.292 135.439C405.411 135.439 407.832 136.978 409.125 139.479H409.391V135.829H413.824V157.649C413.824 162.715 409.822 165.955 403.503 165.955ZM403.441 153.343C407.216 153.343 409.494 150.472 409.494 146.309V146.268C409.494 142.125 407.196 139.213 403.441 139.213C399.645 139.213 397.51 142.125 397.51 146.268V146.309C397.51 150.451 399.645 153.343 403.441 153.343Z" fill="white"/>
</svg>
