<svg width="673" height="199" viewBox="0 0 673 199" fill="none" xmlns="http://www.w3.org/2000/svg">
<path d="M647.472 199H24.9028C11.2063 199 0 187.806 0 174.125V24.875C0 11.1937 11.2063 0 24.9028 0H647.472C661.169 0 672.375 11.1937 672.375 24.875V174.125C672.375 187.806 661.169 199 647.472 199Z" fill="#100F0D"/>
<path d="M103.125 96.6347L50.1294 152.852C50.1314 152.864 50.1353 152.874 50.1373 152.885C51.7626 158.989 57.3411 163.484 63.9621 163.484C66.6088 163.484 69.0937 162.769 71.2247 161.514L71.394 161.415L131.048 127.012L103.125 96.6347Z" fill="#EB3131"/>
<path d="M156.741 87.0601L156.691 87.0253L130.937 72.1038L101.922 97.9081L131.038 127.004L156.656 112.231C161.148 109.807 164.197 105.075 164.197 99.618C164.197 94.2002 161.189 89.4914 156.741 87.0601Z" fill="#F6B60B"/>
<path d="M50.1268 46.1531C49.8083 47.3272 49.6409 48.5571 49.6409 49.8341V149.173C49.6409 150.448 49.8064 151.682 50.1288 152.852L104.948 98.0722L50.1268 46.1531Z" fill="#5778C5"/>
<path d="M103.516 99.5039L130.947 72.0966L71.3607 37.5691C69.1948 36.2726 66.6671 35.5244 63.9622 35.5244C57.3413 35.5244 51.7551 40.0273 50.1294 46.1391C50.1274 46.145 50.1274 46.149 50.1274 46.1545L103.516 99.5039Z" fill="#3BAD49"/>
<path d="M491.701 99.9968H499.816V45.6321H491.701V99.9968ZM564.832 65.2157L555.523 88.7853H555.245L545.587 65.2157H536.837L551.322 98.1585L543.064 116.483H551.531L573.857 65.2157H564.832ZM518.782 93.8227C516.123 93.8227 512.415 92.4933 512.415 89.2052C512.415 85.0092 517.035 83.4003 521.022 83.4003C524.591 83.4003 526.269 84.1694 528.439 85.2192C527.812 90.2545 523.471 93.8227 518.782 93.8227ZM519.762 64.0261C513.884 64.0261 507.795 66.6147 505.277 72.35L512.485 75.3585C514.023 72.35 516.895 71.3704 519.901 71.3704C524.102 71.3704 528.369 73.8888 528.439 78.3649V78.9246C526.97 78.0848 523.819 76.8256 519.971 76.8256C512.206 76.8256 504.295 81.0933 504.295 89.065C504.295 96.3391 510.663 101.025 517.801 101.025C523.262 101.025 526.269 98.5779 528.16 95.7097H528.439V99.9072H536.279V79.0644C536.279 69.4112 529.071 64.0261 519.762 64.0261ZM469.585 71.8351H458.042V53.1993H469.585C475.658 53.1993 479.102 58.2212 479.102 62.5162C479.102 66.7296 475.658 71.8351 469.585 71.8351ZM469.376 45.6321H449.922V99.9968H458.042V79.4008H469.376C478.376 79.4008 487.222 72.8883 487.222 62.5162C487.222 52.1441 478.376 45.6321 469.376 45.6321ZM363.293 93.8321C357.685 93.8321 352.987 89.1391 352.987 82.6928C352.987 76.1764 357.685 71.4132 363.293 71.4132C368.829 71.4132 373.176 76.1764 373.176 82.6928C373.176 89.1391 368.829 93.8321 363.293 93.8321ZM372.614 68.261H372.334C370.512 66.0883 367.006 64.1271 362.59 64.1271C353.336 64.1271 344.854 72.2545 344.854 82.6928C344.854 93.061 353.336 101.118 362.59 101.118C367.006 101.118 370.512 99.157 372.334 96.9147H372.614V99.5769C372.614 106.653 368.829 110.437 362.73 110.437C357.755 110.437 354.669 106.863 353.408 103.851L346.326 106.793C348.36 111.698 353.758 117.723 362.73 117.723C372.265 117.723 380.326 112.118 380.326 98.4555V65.2465H372.614V68.261ZM385.934 99.9968H394.064V45.6321H385.934V99.9968ZM406.052 82.061C405.841 74.9172 411.59 71.2734 415.726 71.2734C418.95 71.2734 421.683 72.8844 422.596 75.1968L406.052 82.061ZM431.288 75.8968C429.746 71.763 425.049 64.1271 415.446 64.1271C405.913 64.1271 397.99 71.6232 397.99 82.6227C397.99 92.9908 405.841 101.118 416.355 101.118C424.837 101.118 429.746 95.9331 431.778 92.9207L425.469 88.7172C423.365 91.8013 420.492 93.8321 416.355 93.8321C412.22 93.8321 409.275 91.9416 407.384 88.2276L432.13 77.9993L431.288 75.8968ZM234.145 69.8023V77.6475H252.931C252.371 82.061 250.899 85.2853 248.655 87.5261C245.921 90.2585 241.645 93.2724 234.145 93.2724C222.579 93.2724 213.535 83.954 213.535 72.3948C213.535 60.8331 222.579 51.5167 234.145 51.5167C240.383 51.5167 244.941 53.9669 248.305 57.1212L253.843 51.5863C249.147 47.1033 242.908 43.6689 234.145 43.6689C218.304 43.6689 204.983 56.5595 204.983 72.3948C204.983 88.2276 218.304 101.118 234.145 101.118C242.697 101.118 249.147 98.3157 254.193 93.061C259.381 87.8779 260.993 80.5898 260.993 74.7052C260.993 72.8843 260.853 71.2033 260.572 69.8023H234.145ZM282.352 93.8321C276.741 93.8321 271.905 89.2087 271.905 82.6227C271.905 75.9664 276.741 71.4132 282.352 71.4132C287.959 71.4132 292.794 75.9664 292.794 82.6227C292.794 89.2087 287.959 93.8321 282.352 93.8321ZM282.352 64.1271C272.115 64.1271 263.773 71.9028 263.773 82.6227C263.773 93.2724 272.115 101.118 282.352 101.118C292.584 101.118 300.927 93.2724 300.927 82.6227C300.927 71.9028 292.584 64.1271 282.352 64.1271ZM322.874 93.8321C317.266 93.8321 312.428 89.2087 312.428 82.6227C312.428 75.9664 317.266 71.4132 322.874 71.4132C328.482 71.4132 333.318 75.9664 333.318 82.6227C333.318 89.2087 328.482 93.8321 322.874 93.8321ZM322.874 64.1271C312.638 64.1271 304.299 71.9028 304.299 82.6227C304.299 93.2724 312.638 101.118 322.874 101.118C333.108 101.118 341.451 93.2724 341.451 82.6227C341.451 71.9028 333.108 64.1271 322.874 64.1271Z" fill="white"/>
<path d="M211.918 157.863C214.109 160.079 216.789 161.186 219.952 161.186C223.121 161.186 225.799 160.079 227.989 157.863C230.18 155.647 231.273 152.82 231.273 149.374C231.273 145.934 230.18 143.106 227.989 140.891C225.799 138.676 223.121 137.564 219.952 137.564C216.789 137.564 214.109 138.676 211.918 140.891C209.728 143.106 208.629 145.934 208.629 149.374C208.629 152.82 209.728 155.647 211.918 157.863ZM230.797 160.341C227.892 163.33 224.279 164.82 219.952 164.82C215.631 164.82 212.014 163.33 209.106 160.341C206.199 157.352 204.746 153.698 204.746 149.374C204.746 145.056 206.199 141.402 209.106 138.415C212.014 135.426 215.631 133.93 219.952 133.93C224.249 133.93 227.856 135.436 230.777 138.435C233.696 141.435 235.158 145.079 235.158 149.374C235.158 153.698 233.703 157.352 230.797 160.341Z" fill="white"/>
<path d="M211.918 157.862L211.564 158.211C213.837 160.516 216.672 161.688 219.953 161.682C223.238 161.688 226.074 160.516 228.343 158.211C230.63 155.904 231.777 152.921 231.771 149.373C231.777 145.83 230.63 142.847 228.343 140.54V140.542C226.074 138.237 223.238 137.059 219.953 137.065C216.671 137.059 213.835 138.237 211.564 140.54L211.562 140.542C209.28 142.847 208.128 145.83 208.132 149.373C208.128 152.923 209.28 155.904 211.562 158.211H211.564L211.918 157.862L212.272 157.511C210.179 155.388 209.134 152.715 209.128 149.373C209.134 146.038 210.179 143.366 212.272 141.239C214.383 139.113 216.906 138.066 219.953 138.06C223.005 138.066 225.528 139.113 227.633 141.239H227.635C229.731 143.366 230.772 146.038 230.776 149.373C230.772 152.715 229.731 155.388 227.635 157.511H227.633C225.528 159.638 223.005 160.682 219.953 160.687C216.904 160.682 214.381 159.638 212.272 157.511L211.918 157.862ZM230.797 160.339L230.441 159.994C227.618 162.887 224.164 164.315 219.953 164.321C215.744 164.315 212.287 162.887 209.464 159.994C206.644 157.088 205.248 153.586 205.244 149.373C205.248 145.165 206.644 141.665 209.464 138.76C212.287 135.864 215.744 134.432 219.953 134.426C224.133 134.432 227.583 135.874 230.421 138.779C233.251 141.7 234.657 145.193 234.661 149.373C234.657 153.586 233.261 157.088 230.441 159.994L230.797 160.339L231.155 160.685C234.149 157.614 235.662 153.807 235.656 149.373C235.662 144.967 234.137 141.172 231.135 138.086C228.131 134.995 224.366 133.425 219.953 133.431C215.517 133.425 211.741 134.986 208.75 138.066C205.756 141.138 204.245 144.944 204.249 149.373C204.245 153.807 205.756 157.614 208.75 160.685C211.741 163.768 215.517 165.322 219.953 165.316C224.394 165.322 228.164 163.768 231.155 160.685L230.797 160.339Z" fill="white"/>
<path d="M244.194 148.632H250.312C251.822 148.632 253.125 148.137 254.214 147.146C255.303 146.154 255.848 144.901 255.848 143.391C255.848 142.096 255.361 140.911 254.399 139.838C253.436 138.766 252.153 138.225 250.559 138.225H244.194V148.632ZM240.395 164.16V134.591H250.477C252.979 134.591 255.147 135.427 256.979 137.094C258.813 138.76 259.731 140.859 259.731 143.391C259.731 145.455 259.055 147.276 257.705 148.862C256.353 150.444 254.675 151.44 252.662 151.854L252.581 151.979L260.889 163.995V164.16H256.382L248.409 152.185H244.194V164.16H240.395Z" fill="white"/>
<path d="M244.195 148.631V149.128H250.313C251.931 149.132 253.378 148.584 254.549 147.511C255.738 146.439 256.351 145.018 256.346 143.39C256.349 141.969 255.8 140.647 254.771 139.504C253.716 138.323 252.264 137.72 250.559 137.726H244.195H243.697V149.128H244.195V148.631H244.692V138.721H250.559C252.042 138.727 253.155 139.203 254.028 140.169C254.924 141.172 255.348 142.223 255.35 143.39C255.344 144.781 254.87 145.867 253.88 146.777C252.873 147.686 251.714 148.129 250.313 148.133H244.195V148.631ZM240.395 164.159H240.893V135.087H250.478C252.869 135.091 254.893 135.872 256.645 137.46C258.382 139.046 259.227 140.978 259.233 143.39C259.231 145.344 258.605 147.031 257.325 148.535C256.039 150.042 254.475 150.971 252.564 151.365L252.362 151.406L252.165 151.705L251.98 151.985L260.392 164.149V164.159H260.89V163.661H256.649L248.677 151.686H244.195H243.697V163.661H240.395V164.159V164.656H244.195H244.692V152.681H248.143L256.117 164.656H260.89H261.388V163.994V163.838L252.991 151.696L252.581 151.977L252.997 152.251L253.081 152.125L252.663 151.853L252.764 152.339C254.877 151.907 256.668 150.844 258.084 149.183C259.508 147.519 260.233 145.562 260.229 143.39C260.237 140.737 259.246 138.471 257.316 136.723C255.402 134.978 253.091 134.088 250.478 134.092H239.898V164.656H240.395V164.159Z" fill="white"/>
<path d="M278.429 161.185C280.134 161.185 281.8 160.802 283.43 160.029L279.959 154.824L282.935 152.805L286.361 157.965C288.622 155.763 289.75 152.902 289.75 149.373C289.75 145.933 288.657 143.105 286.464 140.89C284.275 138.674 281.596 137.563 278.429 137.563C275.263 137.563 272.586 138.674 270.392 140.89C268.204 143.105 267.106 145.933 267.106 149.373C267.106 152.819 268.204 155.646 270.392 157.862C272.586 160.077 275.263 161.185 278.429 161.185ZM287.558 166.141L285.534 163.129C283.333 164.256 280.961 164.819 278.429 164.819C274.106 164.819 270.49 163.329 267.582 160.34C264.676 157.351 263.221 153.697 263.221 149.373C263.221 145.055 264.676 141.401 267.582 138.414C270.49 135.425 274.106 133.929 278.429 133.929C282.727 133.929 286.334 135.435 289.254 138.434C292.171 141.434 293.635 145.078 293.635 149.373C293.635 154.14 291.914 158.047 288.467 161.101L290.531 164.197L287.558 166.141Z" fill="white"/>
<path d="M278.429 161.186V161.684C280.208 161.684 281.955 161.282 283.645 160.479L284.164 160.232L280.649 154.962L282.799 153.5L286.279 158.74L286.709 158.322C289.072 156.029 290.254 153.007 290.248 149.374C290.254 145.832 289.106 142.849 286.818 140.542V140.544C284.551 138.239 281.714 137.061 278.429 137.067C275.148 137.061 272.312 138.239 270.039 140.542V140.544C267.756 142.849 266.603 145.832 266.609 149.374C266.603 152.925 267.756 155.906 270.039 158.213C272.312 160.518 275.148 161.69 278.429 161.684V161.186V160.689C275.381 160.683 272.859 159.64 270.747 157.513C268.655 155.389 267.608 152.717 267.604 149.374C267.608 146.04 268.655 143.367 270.747 141.241C272.859 139.115 275.381 138.068 278.429 138.062C281.482 138.068 284.003 139.115 286.111 141.241C288.207 143.367 289.248 146.04 289.252 149.374C289.246 152.799 288.173 155.5 286.015 157.609L286.362 157.966L286.777 157.69L283.071 152.111L279.68 154.416L279.271 154.692L283.017 160.306L283.431 160.03L283.217 159.581C281.65 160.324 280.059 160.689 278.429 160.689V161.186ZM287.559 166.142L287.972 165.864L285.949 162.852L285.701 162.485L285.309 162.687C283.176 163.779 280.887 164.323 278.429 164.323C274.222 164.317 270.764 162.889 267.942 159.995C265.122 157.09 263.725 153.588 263.719 149.374C263.725 145.167 265.122 141.667 267.942 138.761C270.764 135.866 274.222 134.434 278.429 134.428C282.61 134.434 286.058 135.875 288.898 138.781H288.896C291.728 141.702 293.132 145.194 293.138 149.374C293.13 154.023 291.481 157.756 288.137 160.732L287.812 161.019L289.84 164.057L287.286 165.726L287.559 166.142L287.832 166.558L290.804 164.615L291.227 164.341L288.881 160.827L288.467 161.103L288.797 161.476C292.346 158.34 294.139 154.26 294.133 149.374C294.137 144.969 292.614 141.173 289.613 138.087H289.611C286.608 134.997 282.842 133.427 278.429 133.433C273.992 133.427 270.216 134.987 267.225 138.068C264.231 141.14 262.72 144.946 262.724 149.374C262.72 153.809 264.231 157.616 267.225 160.687C270.216 163.769 273.992 165.324 278.429 165.318C281.035 165.318 283.491 164.735 285.762 163.573L285.534 163.13L285.122 163.408L287.145 166.42L287.419 166.828L287.832 166.558L287.559 166.142Z" fill="white"/>
<path d="M303.692 152.597H313.528L308.695 139.259H308.53L303.692 152.597ZM295.306 164.16L306.463 134.591H310.76L321.913 164.16H317.702L314.848 156.147H302.415L299.521 164.16H295.306Z" fill="white"/>
<path d="M303.692 152.596V153.093H314.235L309.043 138.76H308.53H308.18L302.982 153.093H303.692V152.596L304.161 152.764L308.996 139.429L308.53 139.258V139.755H308.695V139.258L308.227 139.429L312.817 152.098H303.692V152.596ZM295.306 164.159L295.772 164.333L306.807 135.087H310.416L321.192 163.661H318.054L315.2 155.648H302.064L299.171 163.661H295.306V164.159V164.656H299.521H299.871L302.763 156.643H314.497L317.35 164.656H321.913H322.632L311.105 134.092H306.463H306.119L294.586 164.656H295.306V164.159Z" fill="white"/>
<path d="M325.807 164.16V134.591H329.607V160.526H342.417V164.16H325.807Z" fill="white"/>
<path d="M325.807 164.159H326.305V135.087H329.108V161.022H341.919V163.661H325.807V164.159V164.656H342.914V160.524V160.027H330.104V134.092H325.807H325.309V164.656H325.807V164.159Z" fill="white"/>
<path d="M346.593 164.16V134.591H350.392V164.16H346.593Z" fill="white"/>
<path d="M346.594 164.159H347.092V135.087H349.895V163.661H346.594V164.159V164.656H350.393H350.891V134.092H346.594H346.096V164.656H346.594V164.159Z" fill="white"/>
<path d="M371.156 157.863C373.35 160.079 376.028 161.186 379.193 161.186C382.36 161.186 385.04 160.079 387.228 157.863C389.421 155.647 390.514 152.82 390.514 149.374C390.514 145.934 389.421 143.106 387.228 140.891C385.04 138.676 382.36 137.564 379.193 137.564C376.028 137.564 373.35 138.676 371.156 140.891C368.969 143.106 367.87 145.934 367.87 149.374C367.87 152.82 368.969 155.647 371.156 157.863ZM390.037 160.341C387.131 163.33 383.518 164.82 379.193 164.82C374.87 164.82 371.254 163.33 368.346 160.341C365.44 157.352 363.987 153.698 363.987 149.374C363.987 145.056 365.44 141.402 368.346 138.415C371.254 135.426 374.87 133.93 379.193 133.93C383.491 133.93 387.098 135.436 390.018 138.435C392.935 141.435 394.399 145.079 394.399 149.374C394.399 153.698 392.944 157.352 390.037 160.341Z" fill="white"/>
<path d="M371.156 157.862L370.802 158.211C373.075 160.516 375.911 161.688 379.193 161.682C382.476 161.688 385.312 160.516 387.581 158.211C389.869 155.904 391.017 152.921 391.011 149.373C391.015 145.83 389.869 142.847 387.581 140.54V140.542C385.314 138.237 382.476 137.059 379.193 137.065C375.911 137.059 373.075 138.237 370.802 140.54V140.542C368.519 142.847 367.368 145.83 367.372 149.373C367.368 152.923 368.519 155.904 370.802 158.211L371.156 157.862L371.51 157.511C369.418 155.388 368.371 152.715 368.367 149.373C368.371 146.038 369.418 143.366 371.51 141.239C373.621 139.113 376.144 138.066 379.193 138.06C382.245 138.066 384.766 139.113 386.874 141.239C388.969 143.366 390.01 146.038 390.016 149.373C390.01 152.715 388.969 155.388 386.874 157.511C384.768 159.638 382.245 160.682 379.193 160.687C376.144 160.682 373.621 159.638 371.51 157.511L371.156 157.862ZM390.037 160.339L389.679 159.994C386.856 162.887 383.405 164.315 379.193 164.321C374.985 164.315 371.527 162.887 368.705 159.994C365.884 157.088 364.488 153.586 364.484 149.373C364.488 145.165 365.884 141.665 368.705 138.76C371.527 135.864 374.985 134.432 379.193 134.426C383.373 134.432 386.821 135.874 389.661 138.779L389.665 138.785L389.659 138.779C392.491 141.7 393.895 145.193 393.901 149.373C393.895 153.586 392.499 157.088 389.679 159.994L390.037 160.339L390.395 160.685C393.389 157.614 394.9 153.807 394.896 149.373C394.9 144.967 393.377 141.172 390.376 138.086H390.374C387.371 134.995 383.605 133.425 379.193 133.431C374.755 133.425 370.979 134.986 367.99 138.066C364.994 141.138 363.483 144.944 363.489 149.373C363.483 153.807 364.994 157.614 367.99 160.685C370.979 163.768 374.755 165.322 379.193 165.316C383.632 165.322 387.404 163.768 390.395 160.685L390.037 160.339Z" fill="white"/>
<path d="M399.637 164.16V134.591H403.441V160.526H416.249V164.16H399.637Z" fill="white"/>
<path d="M399.638 164.159H400.135V135.087H402.943V161.022H415.751V163.661H399.638V164.159V164.656H416.746V160.524V160.027H403.938V134.092H399.638H399.14V164.656H399.638V164.159Z" fill="white"/>
<path d="M420.426 164.16V134.591H424.228V164.16H420.426Z" fill="white"/>
<path d="M420.426 164.159H420.924V135.087H423.73V163.661H420.426V164.159V164.656H424.228H424.726V134.092H420.426H419.928V164.656H420.426V164.159Z" fill="white"/>
<path d="M431.055 164.16V134.591H435.684L450.061 157.595H450.231L450.061 151.897V134.591H453.864V164.16H449.897L434.858 140.042H434.692L434.858 145.74V164.16H431.055Z" fill="white"/>
<path d="M431.056 164.159H431.554V135.087H435.409L449.788 158.092H450.231H450.744L450.559 151.888V135.087H453.367V163.661H450.176L435.135 139.543H434.692H434.179L434.36 145.749V163.661H431.056V164.159V164.656H434.858H435.356V145.733L435.191 140.025L434.692 140.041V140.538H434.858V140.041L434.435 140.304L449.624 164.656H453.865H454.362V134.092H450.062H449.564V151.904L449.734 157.609L450.231 157.594V157.097H450.062V157.594L450.485 157.331L435.96 134.092H431.056H430.558V164.656H431.056V164.159Z" fill="white"/>
<path d="M489.074 150.575C489.074 154.705 487.849 157.993 485.395 160.442C482.612 163.363 478.993 164.82 474.528 164.82C470.262 164.82 466.633 163.343 463.647 160.38C460.655 157.422 459.161 153.753 459.161 149.374C459.161 144.997 460.655 141.334 463.647 138.371C466.633 135.413 470.262 133.93 474.528 133.93C476.649 133.93 478.675 134.348 480.606 135.174C482.532 135.999 484.071 137.097 485.231 138.478L482.627 141.076C480.676 138.74 477.973 137.564 474.528 137.564C471.417 137.564 468.724 138.662 466.454 140.848C464.179 143.041 463.044 145.882 463.044 149.374C463.044 152.872 464.179 155.715 466.454 157.902C468.724 160.092 471.417 161.186 474.528 161.186C477.834 161.186 480.591 160.088 482.796 157.883C484.23 156.454 485.057 154.458 485.276 151.896H474.528V148.346H488.865C489.009 149.117 489.074 149.856 489.074 150.575Z" fill="white"/>
<path d="M489.074 150.574H488.577C488.572 154.608 487.392 157.741 485.042 160.089V160.093L485.037 160.098C482.344 162.916 478.889 164.315 474.529 164.321C470.377 164.315 466.902 162.9 463.996 160.024C461.098 157.15 459.664 153.638 459.659 149.373C459.664 145.109 461.098 141.603 463.996 138.723C466.902 135.85 470.377 134.432 474.529 134.426C476.585 134.426 478.541 134.83 480.413 135.629C482.279 136.431 483.748 137.483 484.847 138.794L485.231 138.476L484.878 138.124L482.279 140.722L482.628 141.074L483.011 140.756C480.965 138.301 478.083 137.057 474.529 137.065C471.303 137.061 468.46 138.219 466.111 140.49C463.737 142.771 462.542 145.776 462.547 149.373C462.542 152.978 463.737 155.982 466.111 158.26V158.258C468.46 160.532 471.303 161.686 474.529 161.682C477.944 161.686 480.86 160.532 483.146 158.233C484.678 156.707 485.545 154.579 485.769 151.938L485.819 151.397H475.026V148.842H488.865V148.345L488.377 148.432C488.512 149.178 488.577 149.886 488.577 150.574H489.074H489.572C489.572 149.823 489.502 149.054 489.358 148.253L489.283 147.847H474.03V151.895V152.393H485.276V151.895L484.778 151.852C484.564 154.332 483.778 156.198 482.443 157.529C480.328 159.642 477.73 160.682 474.529 160.687C471.537 160.683 468.994 159.651 466.803 157.543V157.541C464.627 155.446 463.548 152.766 463.543 149.373C463.548 145.985 464.627 143.305 466.803 141.204C468.994 139.102 471.537 138.064 474.529 138.06C477.864 138.068 480.383 139.176 482.249 141.395L482.598 141.813L485.585 138.828L485.903 138.505L485.61 138.155C484.4 136.707 482.787 135.565 480.806 134.715C478.815 133.862 476.714 133.431 474.529 133.431C470.148 133.425 466.36 134.97 463.293 138.015C460.217 141.063 458.654 144.884 458.664 149.373C458.659 153.864 460.217 157.689 463.298 160.732H463.293C466.36 163.783 470.148 165.322 474.529 165.316C479.098 165.322 482.886 163.806 485.754 160.785L485.396 160.44L485.749 160.794C488.307 158.244 489.577 154.798 489.572 150.574H489.074Z" fill="white"/>
</svg>
